<svg xmlns="http://www.w3.org/2000/svg" width="148.57" height="100" viewBox="0 0 148.57 100">
  <path d="M20.6,64.767V100H0V0H39.011A45.132,45.132,0,0,1,58.825,4.121a30.37,30.37,0,0,1,13.153,11.71,32.665,32.665,0,0,1,4.6,17.273q0,14.7-10.062,23.18t-27.85,8.482H20.6Zm0-16.69H39.011q8.172,0,12.465-3.846T55.77,33.242q0-7.349-4.327-11.882T39.491,16.69H20.6V48.077Z" style="fill: #182234"/>
  <path d="M121.9,66.571q6.825,16.241,8.689,19.369a21.779,21.779,0,0,0,3.476,4.644,4.787,4.787,0,0,0,3.255,1.516q4.675,0,6.572-10.237l3.665,0.443a50.271,50.271,0,0,1-1.3,6.509,21.746,21.746,0,0,1-2.37,5.655,12.59,12.59,0,0,1-3.792,4.013A9.687,9.687,0,0,1,134.6,100a16.565,16.565,0,0,1-3.855-.41,8.48,8.48,0,0,1-3.191-1.548,14.82,14.82,0,0,1-2.907-3.1,38,38,0,0,1-2.97-4.992q-1.55-3.034-3.349-7.362t-4.076-10.143H114.13a102.116,102.116,0,0,1-6.288,14.977,37.521,37.521,0,0,1-5.75,8.278,12.963,12.963,0,0,1-5.309,3.539,17.4,17.4,0,0,1-4.96.759,8.62,8.62,0,0,1-5.877-1.832A6.724,6.724,0,0,1,85.409,89a5.389,5.389,0,0,1,6.161-1.043,4.07,4.07,0,0,1,1.454,1.328,5.554,5.554,0,0,1,.726,1.738,12.012,12.012,0,0,1,.285,1.706c0.168,0.043.316,0.075,0.443,0.1a2.665,2.665,0,0,0,.443.031,6.015,6.015,0,0,0,3.6-1.453A18.652,18.652,0,0,0,102.5,86.73a64.227,64.227,0,0,0,4.392-8.342q2.307-5.118,4.771-12.449-5.941-16.367-7.33-19.5a18.874,18.874,0,0,0-2.717-4.645,3.952,3.952,0,0,0-3.033-1.517,4.852,4.852,0,0,0-2.243.569,5.48,5.48,0,0,0-2.022,1.991A12.863,12.863,0,0,0,92.8,46.76a35.036,35.036,0,0,0-.79,6.288l-3.728.126q0-1.768.189-3.981a29.72,29.72,0,0,1,2.275-9.037,14.433,14.433,0,0,1,2.5-3.95,11.78,11.78,0,0,1,3.7-2.781A11.459,11.459,0,0,1,102,32.383a9.307,9.307,0,0,1,5.719,1.675,14.36,14.36,0,0,1,3.95,4.9,50.824,50.824,0,0,1,3.254,7.994q1.548,4.772,3.7,10.9h0.127a79.543,79.543,0,0,1,6.73-13.46,39.342,39.342,0,0,1,6.288-7.71,16.206,16.206,0,0,1,5.466-3.476,14.178,14.178,0,0,1,4.329-.821,7.058,7.058,0,0,1,5.214,1.8,6.127,6.127,0,0,1,1.8,4.518,5.671,5.671,0,0,1-.41,2.149,5.547,5.547,0,0,1-2.812,2.97,4.863,4.863,0,0,1-2.085.442,6.132,6.132,0,0,1-2.465-.442,6.657,6.657,0,0,1-1.706-1.043,5.5,5.5,0,0,1-1.106-1.264q-0.412-.664-0.663-1.106a7.107,7.107,0,0,0-3,1.39,18.794,18.794,0,0,0-3.729,3.918,53.321,53.321,0,0,0-4.424,7.236q-2.37,4.519-5.15,11.343Z" style="fill: #295cc2"/>
</svg>
